M48
;DRILL file {Pcbnew (2013-07-07 BZR 4022)-stable} date 11/18/2013 8:59:11 PM
;FORMAT={-:-/ absolute / inch / decimal}
FMAT,2
INCH,TZ
T1C0.025
T2C0.032
T3C0.039
T4C0.120
%
G90
G05
M72
T1
X7.01Y-5.715
X7.0774Y-5.4362
X7.17Y-4.815
X7.185Y-4.695
X7.22Y-5.095
X7.225Y-4.85
X7.23Y-4.745
X7.31Y-4.985
X7.385Y-4.96
X7.4096Y-5.4164
X7.42Y-4.615
X7.435Y-4.95
X7.525Y-4.83
X7.53Y-4.75
X7.565Y-4.7
X7.57Y-4.865
X7.705Y-5.01
X7.76Y-4.75
X7.79Y-5.485
T2
X7.0673Y-4.4147
X7.0673Y-4.5147
X7.0673Y-4.6147
X7.0673Y-4.7147
X7.0673Y-4.8147
X7.0673Y-4.9147
X7.0673Y-5.0147
X7.0673Y-5.1147
X7.0673Y-5.2147
X7.9532Y-4.4148
X7.9532Y-4.5148
X7.9532Y-4.6148
X7.9532Y-4.7148
X7.9532Y-4.8148
X7.9532Y-4.9148
X7.9532Y-5.0148
X7.9532Y-5.1148
X7.9532Y-5.2148
T3
X7.323Y-5.8752
X7.323Y-6.0752
X7.368Y-5.9752
X7.413Y-5.8752
X7.413Y-6.0752
X7.458Y-5.9752
X7.503Y-5.8752
X7.503Y-6.0752
X7.548Y-5.9752
X7.593Y-5.8752
X7.593Y-6.0752
X7.638Y-5.9752
X7.683Y-5.8752
X7.683Y-6.0752
X7.728Y-5.9752
T4
X7.021Y-5.9752
X8.005Y-5.9752
T0
M30
